<svg width="498" height="43" viewBox="0 0 498 43" fill="none" xmlns="http://www.w3.org/2000/svg">
<path d="M0.800781 41.2V1.5H43.7008V14.2H20.4008V18H35.0008V24H20.4008V27.4H43.7008V41.2H0.800781ZM79.9008 41.2C77.7008 41.2 75.4008 38.6 75.4008 35.1V31.5C75.4008 28.7 74.8008 27.3 72.0008 27.3H68.7008V41.3H49.2008V1.5H79.3008C89.5008 1.5 95.6008 6.2 95.6008 12.6V13.1C95.6008 16.9 92.2008 20.9 86.7008 22C93.2008 22.7 95.0008 26.7 95.0008 31.3V34.6C94.9008 36.8 95.6008 38.9 97.0008 40.6V41.2H79.9008ZM75.8008 16.3C75.8008 14.2 74.7008 13.4 71.8008 13.4H68.7008V19.7H71.8008C74.7008 19.7 75.8008 18.4 75.8008 16.4V16.3ZM101.901 41.2V1.5H121.501V41.2H101.901ZM153.701 42.7C137.301 42.7 126.601 34 126.601 21.6V21.1C126.601 8.7 137.301 0 153.701 0C162.301 0 170.601 2.9 175.101 6.8L167.801 16.6C164.501 14.4 160.601 13.1 156.601 13.1C150.901 13.1 146.601 16.3 146.601 21.2V21.4C146.601 26.3 150.901 29.5 156.601 29.5C160.601 29.5 164.501 28.2 167.801 26L174.501 35.8C169.601 40.2 162.301 42.7 153.701 42.7ZM226.701 15.3V41.2H207.101V15.3H193.201V1.5H240.501V15.3H226.701ZM275.101 41.2V27.4H265.201V41.2H245.601V1.5H265.201V16.4H275.101V1.5H294.701V41.2H275.101ZM331.901 41.2L329.701 34.3H318.301L315.801 41.2H298.701L315.201 1.5H335.301L352.201 41.2H331.901ZM324.401 17.8L321.601 25.2H326.801L324.401 17.8ZM379.801 27.8V41.2H360.201V27.7L342.601 1.5H364.301L371.501 13.1L378.401 1.5H397.901L379.801 27.8ZM401.601 41.2V1.5H444.501V14.2H421.101V18H435.701V24H421.101V27.4H444.501V41.2H401.601ZM480.701 41.2C478.501 41.2 476.201 38.6 476.201 35.1V31.4C476.201 28.6 475.601 27.2 472.801 27.2H469.501V41.2H450.001V1.5H480.101C490.301 1.5 496.401 6.2 496.401 12.6V13.1C496.401 16.9 493.001 20.8 487.401 22C493.901 22.7 495.701 26.7 495.701 31.3V34.6C495.601 36.8 496.301 38.9 497.701 40.6V41.2H480.701ZM476.601 16.4C476.601 14.3 475.501 13.5 472.601 13.5H469.501V19.8H472.601C475.501 19.8 476.601 18.5 476.601 16.5V16.4Z" fill="white"/>
</svg>
