<svg width="0.9em" height="0.9em" viewBox="0 0 48 48" fill="none"
  xmlns="http://www.w3.org/2000/svg">
  <title>LinkedIn Icon</title>
  <desc>Icon representing the LinkedIn logo</desc>
  <path d="M40.6731 40.6992H33.7093V29.7913C33.7093 27.1907 33.6623 23.8419 30.0864 23.8419C26.4596 23.8419 25.9034 26.6776 25.9034 29.5994V40.6992H18.9396V18.2685H25.6254V21.3353H25.7194C27.0824 19.0088 29.6203 17.6144 32.315 17.7124C39.3728 17.7124 40.6771 22.3536 40.6771 28.397L40.6731 40.6953V40.6992ZM11.0828 15.2018C10.0131 15.1967 8.98857 14.7697 8.23177 14.0136C7.47498 13.2576 7.04702 12.2335 7.04084 11.1637C7.04084 8.9469 8.866 7.12174 11.0828 7.12174C13.2997 7.12174 15.1209 8.9469 15.1248 11.1637C15.1248 13.3805 13.2997 15.2018 11.0828 15.2018ZM14.5647 40.6992H7.59309V18.2685H14.5647V40.6992ZM44.1394 0.651425H4.0916C3.18353 0.646151 2.31006 0.999458 1.66102 1.63457C1.01197 2.26968 0.639798 3.13527 0.625366 4.04325V44.2594C0.639798 45.1674 1.01197 46.033 1.66102 46.6681C2.31006 47.3032 3.18353 47.6565 4.0916 47.6513H44.1433C45.0535 47.6586 45.9298 47.3065 46.5817 46.6714C47.2337 46.0363 47.6087 45.1695 47.6252 44.2594V4.03933C47.6087 3.12999 47.2335 2.26402 46.5813 1.63015C45.9291 0.996282 45.0527 0.645891 44.1433 0.655342L44.1394 0.651425Z" fill="currentColor"></path>
</svg>