<svg width="0.9em" height="0.9em" viewBox="0 0 49 49" fill="none"
  xmlns="http://www.w3.org/2000/svg">
  <title>Dribbble Icon</title>
  <desc>Icon representing the Dribbble logo</desc>
  <path d="M23.0775 17.7364C20.3775 12.6364 17.5275 7.83638 14.5275 3.03638C7.17751 6.18638 1.77751 13.0864 0.577515 21.3364C7.77751 21.4864 15.2775 20.2864 23.0775 17.7364Z" fill="currentColor"></path>
  <path d="M25.9276 16.6864C31.3276 14.5864 36.5776 11.8864 41.9776 8.58638C37.4776 3.78638 31.3276 0.786377 24.2776 0.786377C21.8776 0.786377 19.4776 1.08638 17.3776 1.83638C20.3776 6.63638 23.2276 11.5864 25.9276 16.6864Z" fill="currentColor"></path>
  <path d="M30.1275 25.5359C34.4775 24.3359 39.1275 23.5859 43.7775 23.5859C45.2775 23.5859 46.6275 23.5859 48.1275 23.7359C47.9775 18.9359 46.3275 14.4359 43.7775 10.8359C38.2275 14.4359 32.6775 17.2859 27.2775 19.3859C28.1775 21.4859 29.2275 23.4359 30.1275 25.5359Z" fill="currentColor"></path>
  <path d="M27.2775 26.4364C26.3775 24.3364 25.3275 22.3864 24.2775 20.2864C16.7775 22.8364 9.42747 24.1864 2.37747 24.1864C1.62747 24.1864 1.02747 24.1864 0.277466 24.1864C0.277466 24.3364 0.277466 24.4864 0.277466 24.7864C0.277466 30.7864 2.52747 36.1864 6.12747 40.3864C12.1275 33.9364 19.3275 29.2864 27.2775 26.4364Z" fill="currentColor"></path>
  <path d="M43.9274 26.7364C39.7274 26.7364 35.5274 27.3364 31.4774 28.3864C33.8774 33.6364 35.8274 39.1864 37.7774 44.7364C43.6274 40.8364 47.5274 34.3864 48.2774 27.0364C46.7774 26.7364 45.2774 26.7364 43.9274 26.7364Z" fill="currentColor"></path>
  <path d="M28.6274 29.2864C20.9774 31.8364 14.0774 36.3364 8.22742 42.6364C12.4274 46.3864 18.1274 48.7864 24.2774 48.7864C28.1774 48.7864 31.7774 47.8864 35.0774 46.2364C33.1274 40.3864 31.0274 34.8364 28.6274 29.2864Z" fill="currentColor"></path>
</svg>