<svg width="0.9em" height="1em" viewBox="0 0 49 51" fill="none"
    xmlns="http://www.w3.org/2000/svg">
    <title>CodePen Icon</title>
    <desc>Icon representing the CodePen logo</desc>
    <path fill-rule="evenodd" clip-rule="evenodd" d="M23.2842 1.04647C24.0369 0.519668 25.0384 0.519668 25.7911 1.04647L47.6476 16.346C48.2318 16.755 48.5798 17.4234 48.5798 18.1366V33.4361C48.5798 34.1493 48.2318 34.8177 47.6476 35.2266L25.7911 50.5261C25.0384 51.0531 24.0369 51.0531 23.2842 50.5261L1.42775 35.2266C0.843461 34.8177 0.495483 34.1493 0.495483 33.4361V18.1366C0.495483 17.4234 0.843461 16.755 1.42775 16.346L23.2842 1.04647ZM4.86678 22.3345V29.2381L9.79807 25.7863L4.86678 22.3345ZM13.6094 28.4544L6.49245 33.4361L22.352 44.5377V34.5742L13.6094 28.4544ZM26.7233 34.5742V44.5377L42.5828 33.4361L35.4659 28.4544L26.7233 34.5742ZM39.2772 25.7863L44.2085 29.2381V22.3345L39.2772 25.7863ZM42.5828 18.1366L35.4659 23.1183L26.7233 16.9986V7.03491L42.5828 18.1366ZM22.352 7.03491V16.9986L13.6094 23.1183L6.49245 18.1366L22.352 7.03491ZM24.5376 20.8046L17.4207 25.7863L24.5376 30.7681L31.6545 25.7863L24.5376 20.8046Z" fill="currentColor"></path>
</svg>