<svg width="1em" height="0.9em" viewBox="0 0 50 49" fill="none"
    xmlns="http://www.w3.org/2000/svg">
    <title>GitHub Icon</title>
    <desc>Icon representing the GitHub logo</desc>
    <path d="M25.0962 0.786552C19.2391 0.76446 13.5663 2.83329 9.09855 6.62082C4.63079 10.4084 1.66131 15.666 0.724373 21.4477C-0.212564 27.2294 0.944545 33.1557 3.98752 38.1604C7.0305 43.1651 11.7596 46.9195 17.3239 48.7483C18.5537 48.945 18.9472 48.1826 18.9472 47.5185V43.3618C12.1342 44.8376 10.6831 40.1398 10.6831 40.1398C10.2237 38.6122 9.22797 37.302 7.87914 36.4504C5.64093 34.9255 8.05131 34.9747 8.05131 34.9747C8.82337 35.0745 9.56287 35.3476 10.2145 35.7735C10.8662 36.1995 11.4131 36.7672 11.8145 37.4342C12.4977 38.6491 13.6329 39.545 14.9732 39.9273C16.3135 40.3096 17.7506 40.1473 18.9718 39.4757C19.0839 38.2288 19.6327 37.0616 20.5214 36.1798C15.2579 35.6387 9.40408 33.5235 9.40408 24.1525C9.33294 21.6965 10.2143 19.3082 11.8637 17.4871C11.1148 15.3704 11.2028 13.0477 12.1096 10.9938C12.1096 10.9938 14.1757 10.3297 18.8734 13.4534C22.9012 12.3706 27.1435 12.3706 31.1713 13.4534C35.8691 10.2805 37.9352 10.9938 37.9352 10.9938C38.842 13.0477 38.93 15.3704 38.1811 17.4871C39.8305 19.3082 40.7118 21.6965 40.6407 24.1525C40.6407 33.5481 34.8853 35.6141 29.4004 36.229C29.9911 36.8228 30.4481 37.536 30.7408 38.3207C31.0335 39.1054 31.1551 39.9437 31.0975 40.7793V47.5185C31.0975 48.1826 31.4911 48.9696 32.7455 48.7483C38.2996 46.9227 43.0219 43.1784 46.0655 38.1866C49.1091 33.1948 50.2751 27.2821 49.3543 21.5085C48.4335 15.735 45.4862 10.4783 41.0408 6.6809C36.5954 2.88352 30.9427 0.793846 25.0962 0.786552Z" fill="currentColor"></path>
</svg>